<svg width="49" height="48" viewBox="0 0 49 48" fill="none" xmlns="http://www.w3.org/2000/svg">
<path d="M0.5 24C0.5 10.7452 11.2452 0 24.5 0C37.7548 0 48.5 10.7452 48.5 24C48.5 37.2548 37.7548 48 24.5 48C11.2452 48 0.5 37.2548 0.5 24Z" fill="#EF7D00"/>
<path d="M31.5 29H33.5C34.1 29 34.5 28.6 34.5 28V25C34.5 24.1 33.8 23.3 33 23.1C31.2 22.6 28.5 22 28.5 22C28.5 22 27.2 20.6 26.3 19.7C25.8 19.3 25.2 19 24.5 19H17.5C16.9 19 16.4 19.4 16.1 19.9L14.7 22.8C14.5676 23.1862 14.5 23.5917 14.5 24V28C14.5 28.6 14.9 29 15.5 29H17.5" stroke="white" stroke-width="2" stroke-linecap="round" stroke-linejoin="round"/>
<path d="M19.5 31C20.6046 31 21.5 30.1046 21.5 29C21.5 27.8954 20.6046 27 19.5 27C18.3954 27 17.5 27.8954 17.5 29C17.5 30.1046 18.3954 31 19.5 31Z" stroke="white" stroke-width="2" stroke-linecap="round" stroke-linejoin="round"/>
<path d="M21.5 29H27.5" stroke="white" stroke-width="2" stroke-linecap="round" stroke-linejoin="round"/>
<path d="M29.5 31C30.6046 31 31.5 30.1046 31.5 29C31.5 27.8954 30.6046 27 29.5 27C28.3954 27 27.5 27.8954 27.5 29C27.5 30.1046 28.3954 31 29.5 31Z" stroke="white" stroke-width="2" stroke-linecap="round" stroke-linejoin="round"/>
</svg>
