<svg width="64" height="64" viewBox="0 0 64 64" fill="none" xmlns="http://www.w3.org/2000/svg">
<path d="M0 32C0 14.3269 14.3269 0 32 0C49.6731 0 64 14.3269 64 32C64 49.6731 49.6731 64 32 64C14.3269 64 0 49.6731 0 32Z" fill="#EF7D00"/>
<path d="M37.3333 20C36.626 20 35.9478 20.281 35.4477 20.781C34.9476 21.2811 34.6666 21.9594 34.6666 22.6667V30.6667C34.6666 31.3739 34.9476 32.0522 35.4477 32.5523C35.9478 33.0524 36.626 33.3333 37.3333 33.3333C37.6869 33.3333 38.0261 33.4738 38.2761 33.7239C38.5262 33.9739 38.6666 34.313 38.6666 34.6667V36C38.6666 36.7072 38.3857 37.3855 37.8856 37.8856C37.3855 38.3857 36.7072 38.6667 36 38.6667C35.6463 38.6667 35.3072 38.8071 35.0572 39.0572C34.8071 39.3072 34.6666 39.6464 34.6666 40V42.6667C34.6666 43.0203 34.8071 43.3594 35.0572 43.6095C35.3072 43.8595 35.6463 44 36 44C38.1217 44 40.1565 43.1571 41.6568 41.6569C43.1571 40.1566 44 38.1217 44 36V22.6667C44 21.9594 43.719 21.2811 43.2189 20.781C42.7188 20.281 42.0405 20 41.3333 20H37.3333Z" stroke="white" stroke-width="2.66667" stroke-linecap="round" stroke-linejoin="round"/>
<path d="M22.6667 20C21.9594 20 21.2811 20.281 20.781 20.781C20.281 21.2811 20 21.9594 20 22.6667V30.6667C20 31.3739 20.281 32.0522 20.781 32.5523C21.2811 33.0524 21.9594 33.3333 22.6667 33.3333C23.0203 33.3333 23.3594 33.4738 23.6095 33.7239C23.8595 33.9739 24 34.313 24 34.6667V36C24 36.7072 23.719 37.3855 23.219 37.8856C22.7189 38.3857 22.0406 38.6667 21.3333 38.6667C20.9797 38.6667 20.6406 38.8071 20.3905 39.0572C20.1405 39.3072 20 39.6464 20 40V42.6667C20 43.0203 20.1405 43.3594 20.3905 43.6095C20.6406 43.8595 20.9797 44 21.3333 44C23.4551 44 25.4899 43.1571 26.9902 41.6569C28.4905 40.1566 29.3333 38.1217 29.3333 36V22.6667C29.3333 21.9594 29.0524 21.2811 28.5523 20.781C28.0522 20.281 27.3739 20 26.6667 20H22.6667Z" stroke="white" stroke-width="2.66667" stroke-linecap="round" stroke-linejoin="round"/>
</svg>
