<svg width="65" height="64" viewBox="0 0 65 64" fill="none" xmlns="http://www.w3.org/2000/svg">
<path d="M0.5 32C0.5 14.3269 14.8269 0 32.5 0C50.1731 0 64.5 14.3269 64.5 32C64.5 49.6731 50.1731 64 32.5 64C14.8269 64 0.5 49.6731 0.5 32Z" fill="#EF7D00"/>
<path d="M37.8333 44V41.3333C37.8333 39.9188 37.2714 38.5623 36.2712 37.5621C35.271 36.5619 33.9144 36 32.5 36H24.5C23.0855 36 21.7289 36.5619 20.7287 37.5621C19.7285 38.5623 19.1666 39.9188 19.1666 41.3333V44" stroke="white" stroke-width="2.66667" stroke-linecap="round" stroke-linejoin="round"/>
<path d="M28.5 30.6667C31.4455 30.6667 33.8333 28.2789 33.8333 25.3333C33.8333 22.3878 31.4455 20 28.5 20C25.5544 20 23.1666 22.3878 23.1666 25.3333C23.1666 28.2789 25.5544 30.6667 28.5 30.6667Z" stroke="white" stroke-width="2.66667" stroke-linecap="round" stroke-linejoin="round"/>
<path d="M41.8334 26.6665V34.6665" stroke="white" stroke-width="2.66667" stroke-linecap="round" stroke-linejoin="round"/>
<path d="M45.8334 30.6665H37.8334" stroke="white" stroke-width="2.66667" stroke-linecap="round" stroke-linejoin="round"/>
</svg>
