<svg width="65" height="64" viewBox="0 0 65 64" fill="none" xmlns="http://www.w3.org/2000/svg">
<path d="M0.5 32C0.5 14.3269 14.8269 0 32.5 0C50.1731 0 64.5 14.3269 64.5 32C64.5 49.6731 50.1731 64 32.5 64C14.8269 64 0.5 49.6731 0.5 32Z" fill="#EF7D00"/>
<path d="M43.1667 29.3332C43.1667 35.9905 35.7814 42.9238 33.3014 45.0652C33.0703 45.2389 32.7891 45.3328 32.5 45.3328C32.211 45.3328 31.9297 45.2389 31.6987 45.0652C29.2187 42.9238 21.8334 35.9905 21.8334 29.3332C21.8334 26.5042 22.9572 23.7911 24.9576 21.7907C26.958 19.7903 29.6711 18.6665 32.5 18.6665C35.329 18.6665 38.0421 19.7903 40.0425 21.7907C42.0429 23.7911 43.1667 26.5042 43.1667 29.3332Z" stroke="white" stroke-width="2.66667" stroke-linecap="round" stroke-linejoin="round"/>
<path d="M32.5 33.3335C34.7091 33.3335 36.5 31.5426 36.5 29.3335C36.5 27.1244 34.7091 25.3335 32.5 25.3335C30.2909 25.3335 28.5 27.1244 28.5 29.3335C28.5 31.5426 30.2909 33.3335 32.5 33.3335Z" stroke="white" stroke-width="2.66667" stroke-linecap="round" stroke-linejoin="round"/>
</svg>
