<svg width="223" height="21" viewBox="0 0 223 21" fill="none" xmlns="http://www.w3.org/2000/svg">
<g clip-path="url(#clip0_115_56)">
<path d="M4.19 16.44C2.91 16.44 1.89 16.07 1.14 15.33C0.38 14.59 0 13.51 0 12.08V9.62999C0 8.20999 0.38 7.12999 1.14 6.37999C1.9 5.63999 2.91 5.26999 4.19 5.26999C5.47 5.26999 6.43 5.61999 7.11 6.32999C7.79 7.03999 8.13 7.99999 8.13 9.22999V9.30999H6.86V9.18999C6.86 8.37999 6.64 7.71999 6.21 7.19999C5.78 6.67999 5.1 6.42999 4.19 6.42999C3.28 6.42999 2.57 6.70999 2.06 7.26999C1.55 7.82999 1.29 8.60999 1.29 9.60999V12.13C1.29 13.13 1.55 13.91 2.06 14.47C2.57 15.03 3.28 15.31 4.19 15.31C5.1 15.31 5.77 15.05 6.21 14.54C6.64 14.02 6.86 13.36 6.86 12.55V12.3H8.13V12.5C8.13 13.73 7.79 14.69 7.11 15.4C6.43 16.11 5.46 16.46 4.19 16.46V16.44Z" fill="white"/>
<path d="M18.35 16.44C17.07 16.44 16.05 16.07 15.29 15.33C14.53 14.59 14.15 13.51 14.15 12.08V9.62999C14.15 8.20999 14.53 7.12999 15.29 6.37999C16.05 5.63999 17.07 5.26999 18.35 5.26999C19.63 5.26999 20.66 5.63999 21.43 6.37999C22.19 7.11999 22.57 8.19999 22.57 9.62999V12.08C22.57 13.5 22.19 14.58 21.43 15.33C20.67 16.07 19.64 16.44 18.35 16.44ZM18.35 15.29C19.28 15.29 20 15.01 20.51 14.45C21.02 13.89 21.28 13.12 21.28 12.13V9.57999C21.28 8.58999 21.02 7.80999 20.51 7.25999C20 6.69999 19.28 6.41999 18.35 6.41999C17.42 6.41999 16.71 6.69999 16.2 7.25999C15.69 7.81999 15.43 8.58999 15.43 9.57999V12.13C15.43 13.12 15.69 13.9 16.2 14.45C16.71 15.01 17.43 15.29 18.35 15.29Z" fill="white"/>
<path d="M29.01 16.23V5.48999H31.51L35.25 15.42H35.45V5.48999H36.72V16.23H34.22L30.49 6.28999H30.28V16.23H29.01Z" fill="white"/>
<path d="M47.24 16.44C46.44 16.44 45.74 16.27 45.13 15.94C44.52 15.61 44.05 15.12 43.7 14.47C43.36 13.83 43.19 13.03 43.19 12.08V9.62999C43.19 8.20999 43.57 7.12999 44.33 6.37999C45.09 5.63999 46.1 5.26999 47.38 5.26999C48.66 5.26999 49.61 5.61999 50.28 6.30999C50.94 7.00999 51.28 7.93999 51.28 9.09999V9.17999H50.01V9.06999C50.01 8.55999 49.92 8.09999 49.73 7.69999C49.55 7.29999 49.26 6.98999 48.87 6.75999C48.48 6.52999 47.99 6.41999 47.38 6.41999C46.47 6.41999 45.76 6.69999 45.25 7.25999C44.74 7.81999 44.48 8.59999 44.48 9.59999V12.12C44.48 13.12 44.74 13.9 45.25 14.46C45.76 15.02 46.48 15.3 47.4 15.3C48.32 15.3 48.96 15.04 49.39 14.53C49.81 14.02 50.03 13.34 50.03 12.49V12.23H46.78V11.12H51.29V16.23H50.12V15.06H49.91C49.8 15.29 49.64 15.5 49.43 15.72C49.23 15.93 48.95 16.11 48.6 16.24C48.25 16.37 47.8 16.44 47.25 16.44H47.24Z" fill="white"/>
<path d="M57.92 16.23V5.48999H62.26C62.92 5.48999 63.51 5.59999 64.02 5.83999C64.53 6.06999 64.92 6.39999 65.21 6.81999C65.5 7.23999 65.64 7.74999 65.64 8.34999V8.51999C65.64 9.22999 65.47 9.77999 65.13 10.19C64.79 10.6 64.39 10.88 63.93 11.02V11.23C64.3 11.24 64.6 11.36 64.84 11.59C65.08 11.82 65.2 12.17 65.2 12.63V16.24H63.93V12.79C63.93 12.48 63.85 12.25 63.68 12.08C63.51 11.92 63.26 11.83 62.92 11.83H59.21V16.23H57.92ZM59.21 10.66H62.14C62.85 10.66 63.39 10.49 63.77 10.15C64.15 9.80999 64.35 9.32999 64.35 8.71999V8.60999C64.35 7.99999 64.16 7.51999 63.78 7.17999C63.4 6.83999 62.85 6.66999 62.14 6.66999H59.21V10.67V10.66Z" fill="white"/>
<path d="M71.9 16.23V5.48999H78.51V6.65999H73.19V10.25H78.08V11.42H73.19V15.07H78.59V16.24H71.9V16.23Z" fill="white"/>
<path d="M88.41 16.44C87.63 16.44 86.94 16.3 86.32 16.03C85.71 15.75 85.22 15.34 84.87 14.78C84.52 14.22 84.34 13.52 84.34 12.69V12.37H85.61V12.69C85.61 13.58 85.87 14.24 86.39 14.68C86.91 15.11 87.58 15.33 88.4 15.33C89.22 15.33 89.88 15.14 90.32 14.76C90.76 14.38 90.98 13.91 90.98 13.33C90.98 12.93 90.88 12.61 90.68 12.38C90.48 12.15 90.2 11.95 89.84 11.8C89.48 11.65 89.06 11.52 88.58 11.41L87.78 11.21C87.16 11.05 86.6 10.85 86.12 10.61C85.64 10.37 85.26 10.07 84.99 9.68C84.72 9.3 84.58 8.8 84.58 8.2C84.58 7.6 84.73 7.07 85.03 6.64C85.33 6.2 85.76 5.86 86.3 5.63C86.85 5.39 87.48 5.28 88.2 5.28C88.92 5.28 89.58 5.41 90.16 5.66C90.74 5.91 91.19 6.28 91.53 6.76C91.86 7.25 92.03 7.86 92.03 8.59V9.23H90.76V8.59C90.76 8.07 90.65 7.65 90.43 7.33C90.21 7.01 89.91 6.78 89.52 6.62C89.14 6.47 88.7 6.39 88.21 6.39C87.5 6.39 86.94 6.55 86.51 6.86C86.08 7.17 85.87 7.61 85.87 8.19C85.87 8.57 85.96 8.88 86.15 9.11C86.33 9.35 86.59 9.54 86.93 9.69C87.27 9.84 87.67 9.97 88.14 10.08L88.94 10.28C89.56 10.41 90.12 10.59 90.62 10.82C91.12 11.05 91.51 11.36 91.81 11.76C92.11 12.16 92.25 12.67 92.25 13.3C92.25 13.93 92.09 14.49 91.77 14.96C91.45 15.43 91.01 15.8 90.43 16.06C89.85 16.32 89.17 16.45 88.4 16.45L88.41 16.44Z" fill="white"/>
<path d="M102.11 16.44C101.33 16.44 100.64 16.3 100.02 16.03C99.4 15.76 98.92 15.34 98.57 14.78C98.22 14.22 98.04 13.52 98.04 12.69V12.37H99.31V12.69C99.31 13.58 99.57 14.24 100.09 14.68C100.61 15.11 101.28 15.33 102.1 15.33C102.92 15.33 103.58 15.14 104.02 14.76C104.46 14.38 104.68 13.91 104.68 13.33C104.68 12.93 104.58 12.61 104.38 12.38C104.18 12.15 103.9 11.95 103.54 11.8C103.18 11.65 102.76 11.52 102.28 11.41L101.48 11.21C100.86 11.05 100.3 10.85 99.82 10.61C99.34 10.37 98.96 10.07 98.69 9.68C98.42 9.3 98.28 8.8 98.28 8.2C98.28 7.6 98.43 7.07 98.73 6.64C99.03 6.21 99.46 5.86 100 5.63C100.54 5.4 101.18 5.28 101.9 5.28C102.62 5.28 103.28 5.41 103.86 5.66C104.44 5.91 104.89 6.28 105.23 6.76C105.56 7.25 105.73 7.86 105.73 8.59V9.23H104.46V8.59C104.46 8.07 104.35 7.65 104.13 7.33C103.91 7.01 103.61 6.78 103.22 6.62C102.84 6.47 102.4 6.39 101.91 6.39C101.2 6.39 100.64 6.55 100.21 6.86C99.78 7.17 99.57 7.61 99.57 8.19C99.57 8.57 99.66 8.88 99.85 9.11C100.03 9.35 100.3 9.54 100.63 9.69C100.97 9.84 101.37 9.97 101.84 10.08L102.64 10.28C103.26 10.41 103.82 10.59 104.32 10.82C104.82 11.05 105.21 11.36 105.51 11.76C105.81 12.16 105.96 12.67 105.96 13.3C105.96 13.93 105.8 14.49 105.48 14.96C105.16 15.43 104.72 15.8 104.14 16.06C103.56 16.32 102.88 16.45 102.11 16.45V16.44Z" fill="white"/>
<path d="M116.13 16.44C114.85 16.44 113.83 16.07 113.07 15.33C112.31 14.59 111.93 13.51 111.93 12.08V9.62999C111.93 8.20999 112.31 7.12999 113.07 6.37999C113.83 5.63999 114.85 5.26999 116.13 5.26999C117.41 5.26999 118.44 5.63999 119.21 6.37999C119.97 7.11999 120.35 8.19999 120.35 9.62999V12.08C120.35 13.5 119.97 14.58 119.21 15.33C118.45 16.07 117.42 16.44 116.13 16.44ZM116.13 15.29C117.06 15.29 117.78 15.01 118.29 14.45C118.8 13.89 119.06 13.12 119.06 12.13V9.57999C119.06 8.58999 118.8 7.80999 118.29 7.25999C117.78 6.69999 117.06 6.41999 116.13 6.41999C115.2 6.41999 114.49 6.69999 113.98 7.25999C113.47 7.81999 113.21 8.58999 113.21 9.57999V12.13C113.21 13.12 113.47 13.9 113.98 14.45C114.49 15.01 115.21 15.29 116.13 15.29Z" fill="white"/>
<path d="M149.7 20.33H153.54L144.68 0.309998H141.09L132.26 20.34H135.99L137.94 15.71H147.75L149.69 20.34L149.7 20.33ZM139.17 12.78L142.86 4.02L146.53 12.78H139.17Z" fill="white"/>
<path d="M170.64 11.98C170.17 11.2 169.52 10.6 168.7 10.19C168.49 10.09 168.28 9.99 168.05 9.92C168.75 9.51 169.32 8.96 169.74 8.24C170.19 7.49 170.42 6.57 170.42 5.5C170.42 3.91 169.84 2.65 168.69 1.7C167.54 0.749999 165.87 0.279999 163.69 0.279999H155.08V20.34H164.21C166.57 20.34 168.34 19.86 169.54 18.91C170.73 17.95 171.33 16.62 171.33 14.9C171.33 13.73 171.09 12.76 170.62 11.98H170.64ZM163.31 3.21C164.48 3.21 165.39 3.44 166.03 3.9C166.68 4.36 167 5.06 167 5.99C167 6.92 166.68 7.6 166.03 8.05C165.38 8.51 164.48 8.74 163.31 8.74H158.5V3.21H163.31ZM166.92 16.74C166.24 17.2 165.27 17.43 164.02 17.43H158.5V11.64H164.02C165.28 11.64 166.24 11.87 166.92 12.34C167.6 12.81 167.94 13.54 167.94 14.53C167.94 15.52 167.6 16.28 166.92 16.74Z" fill="white"/>
<path d="M177.57 17.2V11.7H187.26V8.63001H177.57V3.44001H188.49V0.290009H173.84V20.35H188.89V17.2H177.57Z" fill="white"/>
<path d="M198.52 20.64C197.05 20.64 195.64 20.42 194.31 19.97C192.97 19.52 191.9 18.94 191.09 18.24L192.3 15.34C193.05 15.97 193.99 16.5 195.1 16.92C196.21 17.34 197.35 17.55 198.52 17.55C199.51 17.55 200.31 17.44 200.92 17.21C201.53 16.98 201.98 16.67 202.27 16.28C202.56 15.89 202.7 15.44 202.7 14.95C202.7 14.34 202.49 13.85 202.08 13.47C201.67 13.1 201.13 12.8 200.48 12.58C199.82 12.36 199.1 12.16 198.3 11.98C197.5 11.8 196.7 11.57 195.9 11.31C195.1 11.04 194.37 10.7 193.71 10.29C193.05 9.88 192.51 9.33 192.11 8.64C191.71 7.95 191.5 7.07 191.5 6C191.5 4.93 191.77 3.91 192.32 3C192.87 2.09 193.7 1.37 194.82 0.82C195.94 0.28 197.36 0 199.09 0C200.22 0 201.34 0.15 202.46 0.46C203.57 0.77 204.54 1.21 205.37 1.78L204.27 4.68C203.43 4.15 202.56 3.75 201.66 3.49C200.76 3.23 199.9 3.1 199.07 3.1C198.12 3.1 197.34 3.22 196.73 3.47C196.12 3.72 195.68 4.05 195.4 4.46C195.12 4.87 194.98 5.33 194.98 5.82C194.98 6.43 195.18 6.92 195.59 7.3C195.99 7.67 196.52 7.96 197.18 8.17C197.84 8.38 198.57 8.58 199.37 8.77C200.18 8.96 200.98 9.19 201.77 9.44C202.56 9.7 203.29 10.03 203.95 10.44C204.61 10.85 205.15 11.4 205.55 12.07C205.95 12.75 206.16 13.61 206.16 14.66C206.16 15.71 205.89 16.72 205.34 17.63C204.79 18.54 203.95 19.26 202.82 19.81C201.69 20.36 200.26 20.63 198.54 20.63L198.52 20.64Z" fill="white"/>
<path d="M211.53 17.2V11.7H221.22V8.63001H211.53V3.44001H222.45V0.290009H207.81V20.35H222.85V17.2H211.53Z" fill="white"/>
</g>
<defs>
<clipPath id="clip0_115_56">
<rect width="222.85" height="20.64" fill="white"/>
</clipPath>
</defs>
</svg>
