<svg width="21" height="20" viewBox="0 0 21 20" fill="none" xmlns="http://www.w3.org/2000/svg">
<path d="M15.0953 1.66663H5.09526C4.17478 1.66663 3.42859 2.41282 3.42859 3.33329V16.6666C3.42859 17.5871 4.17478 18.3333 5.09526 18.3333H15.0953C16.0157 18.3333 16.7619 17.5871 16.7619 16.6666V3.33329C16.7619 2.41282 16.0157 1.66663 15.0953 1.66663Z" stroke="#EF7D00" stroke-width="1.66667" stroke-linecap="round" stroke-linejoin="round"/>
<path d="M7.59521 18.3333V15H12.5952V18.3333" stroke="#EF7D00" stroke-width="1.66667" stroke-linecap="round" stroke-linejoin="round"/>
<path d="M6.76184 5H6.77017" stroke="#EF7D00" stroke-width="1.66667" stroke-linecap="round" stroke-linejoin="round"/>
<path d="M13.4286 5H13.4369" stroke="#EF7D00" stroke-width="1.66667" stroke-linecap="round" stroke-linejoin="round"/>
<path d="M10.0952 5H10.1035" stroke="#EF7D00" stroke-width="1.66667" stroke-linecap="round" stroke-linejoin="round"/>
<path d="M10.0952 8.33337H10.1035" stroke="#EF7D00" stroke-width="1.66667" stroke-linecap="round" stroke-linejoin="round"/>
<path d="M10.0952 11.6666H10.1035" stroke="#EF7D00" stroke-width="1.66667" stroke-linecap="round" stroke-linejoin="round"/>
<path d="M13.4286 8.33337H13.4369" stroke="#EF7D00" stroke-width="1.66667" stroke-linecap="round" stroke-linejoin="round"/>
<path d="M13.4286 11.6666H13.4369" stroke="#EF7D00" stroke-width="1.66667" stroke-linecap="round" stroke-linejoin="round"/>
<path d="M6.76184 8.33337H6.77017" stroke="#EF7D00" stroke-width="1.66667" stroke-linecap="round" stroke-linejoin="round"/>
<path d="M6.76184 11.6666H6.77017" stroke="#EF7D00" stroke-width="1.66667" stroke-linecap="round" stroke-linejoin="round"/>
</svg>
