<svg width="21" height="20" viewBox="0 0 21 20" fill="none" xmlns="http://www.w3.org/2000/svg">
<path d="M18.006 13.3334H14.6726C14.2124 13.3334 13.8393 13.7065 13.8393 14.1667V17.5C13.8393 17.9603 14.2124 18.3334 14.6726 18.3334H18.006C18.4662 18.3334 18.8393 17.9603 18.8393 17.5V14.1667C18.8393 13.7065 18.4662 13.3334 18.006 13.3334Z" stroke="#EF7D00" stroke-width="1.66667" stroke-linecap="round" stroke-linejoin="round"/>
<path d="M6.33933 13.3334H3.006C2.54576 13.3334 2.17267 13.7065 2.17267 14.1667V17.5C2.17267 17.9603 2.54576 18.3334 3.006 18.3334H6.33933C6.79957 18.3334 7.17267 17.9603 7.17267 17.5V14.1667C7.17267 13.7065 6.79957 13.3334 6.33933 13.3334Z" stroke="#EF7D00" stroke-width="1.66667" stroke-linecap="round" stroke-linejoin="round"/>
<path d="M12.1726 1.66663H8.83931C8.37908 1.66663 8.00598 2.03972 8.00598 2.49996V5.83329C8.00598 6.29353 8.37908 6.66663 8.83931 6.66663H12.1726C12.6329 6.66663 13.006 6.29353 13.006 5.83329V2.49996C13.006 2.03972 12.6329 1.66663 12.1726 1.66663Z" stroke="#EF7D00" stroke-width="1.66667" stroke-linecap="round" stroke-linejoin="round"/>
<path d="M4.67267 13.3333V10.8333C4.67267 10.6123 4.76047 10.4004 4.91675 10.2441C5.07303 10.0878 5.28499 10 5.506 10H15.506C15.727 10 15.939 10.0878 16.0953 10.2441C16.2515 10.4004 16.3393 10.6123 16.3393 10.8333V13.3333" stroke="#EF7D00" stroke-width="1.66667" stroke-linecap="round" stroke-linejoin="round"/>
<path d="M10.506 9.99996V6.66663" stroke="#EF7D00" stroke-width="1.66667" stroke-linecap="round" stroke-linejoin="round"/>
</svg>
