<svg width="65" height="64" viewBox="0 0 65 64" fill="none" xmlns="http://www.w3.org/2000/svg">
<path d="M0.5 32C0.5 14.3269 14.8269 0 32.5 0C50.1731 0 64.5 14.3269 64.5 32C64.5 49.6731 50.1731 64 32.5 64C14.8269 64 0.5 49.6731 0.5 32Z" fill="#EF7D00"/>
<path d="M24.5 45.3337V21.3337C24.5 20.6264 24.781 19.9481 25.281 19.448C25.7811 18.9479 26.4594 18.667 27.1667 18.667H37.8333C38.5406 18.667 39.2189 18.9479 39.719 19.448C40.219 19.9481 40.5 20.6264 40.5 21.3337V45.3337H24.5Z" stroke="white" stroke-width="2.66667" stroke-linecap="round" stroke-linejoin="round"/>
<path d="M24.5 32H21.8333C21.126 32 20.4478 32.281 19.9477 32.781C19.4476 33.2811 19.1666 33.9594 19.1666 34.6667V42.6667C19.1666 43.3739 19.4476 44.0522 19.9477 44.5523C20.4478 45.0524 21.126 45.3333 21.8333 45.3333H24.5" stroke="white" stroke-width="2.66667" stroke-linecap="round" stroke-linejoin="round"/>
<path d="M40.5 28H43.1667C43.8739 28 44.5522 28.281 45.0523 28.781C45.5524 29.2811 45.8333 29.9594 45.8333 30.6667V42.6667C45.8333 43.3739 45.5524 44.0522 45.0523 44.5523C44.5522 45.0524 43.8739 45.3333 43.1667 45.3333H40.5" stroke="white" stroke-width="2.66667" stroke-linecap="round" stroke-linejoin="round"/>
<path d="M29.8334 24H35.1667" stroke="white" stroke-width="2.66667" stroke-linecap="round" stroke-linejoin="round"/>
<path d="M29.8334 29.333H35.1667" stroke="white" stroke-width="2.66667" stroke-linecap="round" stroke-linejoin="round"/>
<path d="M29.8334 34.667H35.1667" stroke="white" stroke-width="2.66667" stroke-linecap="round" stroke-linejoin="round"/>
<path d="M29.8334 40H35.1667" stroke="white" stroke-width="2.66667" stroke-linecap="round" stroke-linejoin="round"/>
</svg>
