<svg width="65" height="64" viewBox="0 0 65 64" fill="none" xmlns="http://www.w3.org/2000/svg">
<path d="M0.5 32C0.5 14.3269 14.8269 0 32.5 0C50.1731 0 64.5 14.3269 64.5 32C64.5 49.6731 50.1731 64 32.5 64C14.8269 64 0.5 49.6731 0.5 32Z" fill="#EF7D00"/>
<path d="M32.5 45.3337C39.8638 45.3337 45.8333 39.3641 45.8333 32.0003C45.8333 24.6365 39.8638 18.667 32.5 18.667C25.1362 18.667 19.1666 24.6365 19.1666 32.0003C19.1666 39.3641 25.1362 45.3337 32.5 45.3337Z" stroke="white" stroke-width="2.66667" stroke-linecap="round" stroke-linejoin="round"/>
<path d="M28.62 27.9998C28.9335 27.1087 29.5522 26.3573 30.3666 25.8786C31.181 25.4 32.1385 25.225 33.0696 25.3847C34.0006 25.5444 34.8451 26.0285 35.4534 26.7512C36.0618 27.4738 36.3947 28.3885 36.3933 29.3331C36.3933 31.9998 32.3933 33.3331 32.3933 33.3331" stroke="white" stroke-width="2.66667" stroke-linecap="round" stroke-linejoin="round"/>
<path d="M32.5 38.667H32.5133" stroke="white" stroke-width="2.66667" stroke-linecap="round" stroke-linejoin="round"/>
</svg>
