<svg width="21" height="20" viewBox="0 0 21 20" fill="none" xmlns="http://www.w3.org/2000/svg">
<path d="M13.9896 17.5V15.8333C13.9896 14.9493 13.6384 14.1014 13.0133 13.4763C12.3882 12.8512 11.5403 12.5 10.6563 12.5H5.65627C4.77222 12.5 3.92437 12.8512 3.29925 13.4763C2.67413 14.1014 2.32294 14.9493 2.32294 15.8333V17.5" stroke="#EF7D00" stroke-width="1.66667" stroke-linecap="round" stroke-linejoin="round"/>
<path d="M8.15627 9.16667C9.99722 9.16667 11.4896 7.67428 11.4896 5.83333C11.4896 3.99238 9.99722 2.5 8.15627 2.5C6.31532 2.5 4.82294 3.99238 4.82294 5.83333C4.82294 7.67428 6.31532 9.16667 8.15627 9.16667Z" stroke="#EF7D00" stroke-width="1.66667" stroke-linecap="round" stroke-linejoin="round"/>
<path d="M18.9896 17.4999V15.8333C18.989 15.0947 18.7432 14.3773 18.2907 13.7935C17.8382 13.2098 17.2047 12.7929 16.4896 12.6083" stroke="#EF7D00" stroke-width="1.66667" stroke-linecap="round" stroke-linejoin="round"/>
<path d="M13.9896 2.60828C14.7066 2.79186 15.3421 3.20886 15.7959 3.79353C16.2498 4.37821 16.4961 5.0973 16.4961 5.83744C16.4961 6.57758 16.2498 7.29668 15.7959 7.88135C15.3421 8.46603 14.7066 8.88303 13.9896 9.06661" stroke="#EF7D00" stroke-width="1.66667" stroke-linecap="round" stroke-linejoin="round"/>
</svg>
