<svg width="21" height="20" viewBox="0 0 21 20" fill="none" xmlns="http://www.w3.org/2000/svg">
<path d="M17.1323 10.8333C17.1323 15 14.2156 17.0833 10.749 18.2916C10.5674 18.3531 10.3702 18.3502 10.1906 18.2833C6.71562 17.0833 3.79895 15 3.79895 10.8333V4.99997C3.79895 4.77895 3.88675 4.56699 4.04303 4.41071C4.19931 4.25443 4.41127 4.16663 4.63228 4.16663C6.29895 4.16663 8.38228 3.16663 9.83228 1.89997C10.0088 1.74913 10.2334 1.66626 10.4656 1.66626C10.6978 1.66626 10.9224 1.74913 11.099 1.89997C12.5573 3.17497 14.6323 4.16663 16.2989 4.16663C16.52 4.16663 16.7319 4.25443 16.8882 4.41071C17.0445 4.56699 17.1323 4.77895 17.1323 4.99997V10.8333Z" stroke="#EF7D00" stroke-width="1.66667" stroke-linecap="round" stroke-linejoin="round"/>
</svg>
